<?xml version="1.0" encoding="UTF-8"?>
<!DOCTYPE svg PUBLIC "-//W3C//DTD SVG 1.1//EN" "http://www.w3.org/Graphics/SVG/1.1/DTD/svg11.dtd">
<!-- Creator: CorelDRAW 2019 (64-Bit) -->
<svg xmlns="http://www.w3.org/2000/svg" xml:space="preserve" width="3.93701in" height="3.93701in" version="1.1" style="shape-rendering:geometricPrecision; text-rendering:geometricPrecision; image-rendering:optimizeQuality; fill-rule:evenodd; clip-rule:evenodd"
viewBox="0 0 3937.01 3937.01"
 xmlns:xlink="http://www.w3.org/1999/xlink"
 xmlns:xodm="http://www.corel.com/coreldraw/odm/2003">
 <defs>
  <style type="text/css">
   <![CDATA[
    .str0 {stroke:black;stroke-width:4.24;stroke-miterlimit:2.61313}
    .fil1 {fill:black}
    .fil0 {fill:black;fill-rule:nonzero}
   ]]>
  </style>
 </defs>
 <g id="Layer_x0020_1">
  <metadata id="CorelCorpID_0Corel-Layer"/>
  <path class="fil0 str0" d="M1385.52 2308.62c8.36,0 12.17,3.28 11.53,9.94 -3.91,4.76 -5.93,7.62 -5.93,8.67 3.49,95.01 6.35,142.52 8.36,142.52 48.56,-9.84 113.74,-20.63 195.63,-32.17 3.28,1.27 4.87,2.43 4.65,3.7l-0.31 2.43 -2.86 3.81 -11.11 -1.27c-43.17,4.97 -105.48,15.66 -186.95,32.27l0 1.17c6.24,136.8 10.48,214.56 12.7,233.08 1.69,0 2.33,2.11 1.91,6.24l-0.32 2.43 -1.8 6.24 -3.81 0c-3.07,0 -5.93,-27.3 -8.68,-81.78l-8.67 -164.94c-70.68,11.11 -106.22,18.62 -106.54,22.33 -55.02,97.76 -84.85,150.24 -89.61,157.43l-2.54 0c-1.59,0 -2.33,-0.85 -2.12,-2.43 0.43,-3.91 28.89,-55.65 85.59,-155l-1.27 0c-62.63,9.94 -156.27,27.72 -280.8,53.32 -1.69,-0.85 -2.96,-1.27 -3.81,-1.27l0.63 -3.7c0.21,-2.54 68.14,-16.08 203.67,-40.94 6.46,-2.43 35.66,-8.68 87.71,-18.62l101.36 -173.51c0,-0.85 -0.32,-2.12 -0.95,-3.7 0,-1.06 1.48,-3.17 4.34,-6.24zm-92.05 178.59l0 2.43c44.01,-7.41 75.65,-13.65 94.91,-18.62 0.63,-6.98 -1.38,-51.63 -5.93,-133.84l-1.27 0c-25.81,39.89 -55.02,89.83 -87.71,150.03zm178.91 -9.31c6.24,0 11.21,7.41 14.92,22.32l3.7 0c4.55,0 12.38,-1.27 23.49,-3.81 1.69,0.21 2.54,1.06 2.54,2.54l0 1.27c-6.67,17.99 -9.94,29.94 -9.94,35.87l0 8.78c0,1.16 1.27,2.43 3.7,3.7l4.97 0c8.67,0 21.48,-14.49 38.41,-43.38l1.27 0c1.69,0.11 2.54,0.95 2.54,2.43l0 1.27c-8.68,22.11 -21.48,37.35 -38.51,45.81 -1.16,0.85 -3.7,1.27 -7.41,1.27 -7.41,0 -11.53,-4.98 -12.38,-14.92l0 -2.43c0,-3.49 2.01,-13.86 6.14,-31l0 -1.27 -1.17 0c-1.91,0 -6.45,0.42 -13.65,1.27l-7.41 -1.27c0,0.85 -1.69,2.54 -4.97,4.97 -1.69,-0.85 -2.96,-1.27 -3.81,-1.27l0 -6.13c-6.56,-6.67 -9.84,-11.96 -9.84,-16.19l0 -4.87c1.59,-3.39 4.13,-4.97 7.41,-4.97zm0 8.68l0 3.7c0,1.27 1.27,2.43 3.7,3.7l1.27 0 0 -3.7c0,-1.27 -1.27,-2.54 -3.7,-3.7l-1.27 0zm137.54 -190.34l2.54 0c1.27,0 2.33,1.59 3.39,4.98 -0.21,3.7 -3.39,11.11 -9.63,22.32 -8.68,29.52 -13.65,47.72 -14.81,54.49l1.17 0c66.76,-1.59 113.63,-2.44 140.4,-2.44 4.97,0.85 7.41,2.01 7.19,3.7l0 2.43c-0.21,1.91 -5.29,3.6 -15.23,4.97 -3.92,-2.43 -6.67,-3.7 -8.36,-3.7 -14.5,0 -56.71,0.85 -126.75,2.54 -22.11,78.29 -32.9,122.09 -32.27,131.4l-3.07 28.46c0.85,14.71 4.44,21.48 10.79,20.21 6.45,1.27 24.86,-19.26 55.23,-61.37l4.97 0 0 2.44c-29.52,45.7 -49.94,68.56 -61.05,68.56 -10.79,0 -16.82,-10.69 -18.3,-31.95l2.11 -24.55 3.17 -14.5 28.46 -117.54 -1.27 0c-23.28,0 -54.28,0.85 -92.89,2.54 -1.69,-0.85 -2.96,-1.27 -3.81,-1.27l0.31 -4.97c0.85,0 2.12,-0.43 3.7,-1.27 42.64,-1.59 74.06,-2.43 94.27,-2.43 3.7,0 8.46,-13.65 14.28,-40.94 8.25,-27.61 13.44,-41.69 15.44,-42.11zm499.48 -15.76l1.17 0c9.1,4.66 13.65,15.02 13.65,30.89l0 5.61c0,58.08 -27.61,175.73 -83.05,353.06l-2.43 1.27 -1.27 0c-2.43,-0.85 -3.7,-3.07 -3.7,-6.87l0 -3.39c0,-2.22 2.85,-6.77 8.67,-13.65 49.62,-166.53 74.38,-275.93 74.38,-328.19l0 -10.26c-0.85,-13.65 -3.28,-20.42 -7.41,-20.42l-4.97 0c-32.69,8.67 -81.04,87.07 -145.05,235.19 -7.51,15.98 -14.07,34.28 -19.89,54.91 -2.85,3.07 -5.71,4.66 -8.67,4.66l-2.43 -3.39c16.5,-40.94 24.76,-95.85 24.76,-164.63 0,-44.86 -6.56,-67.29 -19.78,-67.29l-3.7 0c-22.75,0 -64.11,49.09 -124,147.27 -37.45,67.29 -67.19,124.42 -89.3,171.4l-2.54 0c-1.59,0 -2.43,-1.17 -2.43,-3.39 3.28,-15.34 36.81,-135.74 100.4,-361.1l4.97 0c0,1.38 0.43,2.12 1.27,2.12 -57.03,202.71 -85.59,305.23 -85.59,307.46l0 3.49 1.27 0c46.87,-94.27 88.66,-165.9 125.27,-214.88 28.88,-37.35 53.22,-57.98 73.11,-61.68 19.79,0 29.73,25.92 29.73,77.87l0 0.85c0,26.87 -2.01,56.71 -6.14,89.3l1.17 0c1.69,-1.48 14.07,-27.72 37.24,-78.72 35.55,-69.41 64.43,-114.37 86.76,-134.79 8.89,-8.46 18.41,-12.7 28.57,-12.7zm82.74 208.22l1.27 0c1.69,0 2.43,1.27 2.43,3.7 -14.81,56.5 -33.43,115.53 -55.76,177.32l3.7 0c47.72,-32.59 104,-58.72 168.65,-78.08 121.14,-35.55 231.39,-53.32 331.05,-53.32l18.62 0c11.54,0.63 17.35,2.64 17.35,6.24l0 1.17c0,1.69 -0.85,2.54 -2.54,2.54 -5.29,-1.69 -9.1,-2.54 -11.11,-2.54l-22.32 0c-100.83,0 -217.42,19.89 -349.67,59.56 -61.57,22.11 -110.35,45.28 -146.32,69.41 -10.26,4.55 -20.63,20.63 -31,48.35 -18.73,40.52 -36.5,60.73 -53.22,60.73 -6.67,-2.86 -9.94,-7.41 -9.94,-13.65 0,-18.09 24.76,-48.35 74.38,-90.46 36.4,-99.56 54.59,-154.15 54.59,-163.67l-3.81 0c-14.39,19.05 -26.02,28.57 -34.7,28.57 -6.56,-1.69 -9.84,-7.09 -9.94,-16.19 3.17,-18.2 6.45,-27.3 9.94,-27.3l2.54 0c0,1.69 0.42,2.54 1.17,2.54 -4.13,10.48 -6.14,18.83 -6.14,24.76l0 4.97c0,1.27 1.27,2.54 3.7,3.7 7.62,0 23.38,-16.08 47.08,-48.35zm-131.41 281.43l0 2.54c0,1.27 1.27,2.43 3.7,3.7l2.54 0c13.44,0 30.37,-25.18 50.78,-75.65l0 -1.27 -1.27 0c-37.14,31 -55.76,54.59 -55.76,70.67zm506.15 -473.88c27.3,3.7 40.94,17.35 40.94,40.94l0 3.7c0,20.84 -12.38,48.14 -37.14,81.78l-4.97 -3.7c22.32,-33.65 33.43,-59.67 33.43,-78.08l0 -8.68c-3.28,-17.35 -11.53,-26.02 -24.76,-26.02l-17.35 0c-31.84,0 -74.37,20.2 -127.7,60.73 -35.55,35.97 -53.32,66.55 -53.32,91.73l0 3.7c0,23.17 24.76,34.7 74.38,34.7l85.59 0c35.44,0 53.22,8.25 53.22,24.86 0,37.98 -49.09,75.96 -147.48,114.06 -41.37,11.53 -75.65,17.35 -102.94,17.35l-1.17 0c-35.76,0 -56.5,-7.41 -62,-22.32l0 -3.7c1.8,-20.1 49.73,-51.1 143.78,-93l6.24 0c1.59,0.21 2.43,1.06 2.43,2.44l0 1.27c-1.48,2.33 -24.55,13.44 -69.41,33.43 -36.19,17.78 -61.37,35.13 -75.65,52.16l0 4.87c0,10.79 18.62,16.19 55.76,16.19 65.49,0 132.46,-21.9 200.91,-65.7 25.39,-19.68 38.62,-36.61 39.68,-50.89l0 -8.68c0,-9.1 -14.92,-13.65 -44.65,-13.65l-73.21 1.27c-62.74,0 -94.16,-16.08 -94.16,-48.35 0,-34.28 28.04,-73.95 84.32,-119.02 47.29,-28.89 85.7,-43.38 115.22,-43.38zm102.63 198.06c7.19,0 11.32,5.82 12.38,17.35l0 1.27c0,9.31 -3.7,18.41 -11.21,27.3l1.27 2.43c7.83,0 22.32,-12.38 43.38,-37.24l3.7 0 0 3.81c-21.48,31.32 -46.24,47.08 -74.38,47.08 -9.42,-2.54 -14.39,-3.7 -14.81,-3.7l-1.27 0c-7.41,12.59 -23.59,72.47 -48.35,179.75 -4.97,19.79 -9.1,29.73 -12.38,29.73l-3.7 0c-2.54,-0.85 -3.81,-3.28 -3.81,-7.41l0 -1.27c0,-23.49 19.04,-91.31 57.13,-203.35 7.62,-34.7 12.59,-52.06 14.81,-52.06l2.54 0c1.59,0.21 2.43,1.06 2.43,2.54 -3.28,13.54 -4.97,21.9 -4.97,24.76l0 2.43 1.27 0c15.45,-22.32 27.51,-33.43 35.97,-33.43zm-34.7 49.62c0.21,1.59 0.95,2.43 2.43,2.43l6.24 0c15.24,0 25.6,-10.69 31,-32.27l0 -6.14c0,-1.27 -1.27,-2.54 -3.81,-3.7l-2.44 0c-9.94,0 -21.05,13.23 -33.43,39.68zm114.26 -57.34c4.02,0 8.15,3.7 12.48,11.11 -4.97,16.93 -7.51,28.99 -7.51,35.97 1.69,3.7 3.39,5.82 4.97,6.24 10.16,0 24.65,-11.64 43.38,-34.7l2.54 0 0 4.87c-17.35,24.87 -32.69,37.24 -45.92,37.24 -6.35,0 -10.47,-6.24 -12.38,-18.62l-1.27 0c-17.77,18.2 -30.57,27.3 -38.41,27.3 -7.41,-1.69 -11.11,-5.82 -11.21,-12.38 0.11,-21.26 15.76,-39.89 47.19,-55.86l6.14 -1.16zm-45.81 55.76l0 2.54c0,1.16 1.27,2.43 3.7,3.7 17.14,-3.91 32.91,-20.1 47.08,-48.35l0 -1.27c0,-1.27 -1.59,-2.86 -4.97,-4.97 -11.96,0 -25.18,9.94 -39.68,29.73 -4.13,7.72 -6.13,13.86 -6.13,18.62zm129.18 -54.28c6.67,0.85 9.94,4.13 9.94,9.94 -1.06,7.19 -6.03,15.55 -14.92,24.76l-4.97 -3.7c7.51,-11.11 11.22,-18.2 11.22,-21.06l-2.54 0c-16.3,0 -28.25,13.22 -35.87,39.67l0 8.68c3.49,5.82 8.89,8.68 16.08,8.68l8.68 0c13.44,0 33.85,-16.93 61.36,-50.79l3.7 0c0,1.59 0.42,2.44 1.27,2.44 -15.55,29.2 -36.39,48.14 -62.63,57.02 -4.76,0 -7.61,0.43 -8.67,1.27 -19.04,-3.07 -28.46,-11 -28.46,-23.59l-1.27 0c0,-17.78 12.38,-34.7 37.14,-50.78 6.67,0 9.94,-0.85 9.94,-2.54zm66.97 7.51l1.17 0c4.55,0 7.83,2.01 9.94,6.13l0 3.7c0,4.02 -10.79,9.31 -32.27,16.19 -1.59,5.39 -2.44,9.1 -2.44,11.11l0 3.7c1.59,3.39 4.13,5.82 7.41,7.51l13.65 0c12.8,0 27.3,-12.38 43.38,-37.24l2.54 0c1.59,0 2.43,1.27 2.43,3.7 -18.2,28.99 -35.97,43.38 -53.32,43.38 -16.5,-2.01 -24.76,-8.99 -24.76,-21.06 6.35,-24.76 17.14,-37.13 32.27,-37.13zm-15.87 18.3l7.72 -4.66 8.68 -5.29 -6.14 0.31c-4.13,0.64 -7.51,3.81 -10.26,9.63z"/>
  <path class="fil1" d="M1536.07 2085.71c205.27,-381.41 265.2,-604.28 348.62,-658.78 47.66,-31.13 92.54,-12.91 96.56,31.67 9.14,102 -166.83,305.62 -445.18,627.11z"/>
  <path class="fil1" d="M1816.6 1946c177.33,-380.41 222.89,-599.35 300.56,-656.72 44.37,-32.76 88.81,-17.65 95.17,25.26 14.53,98.17 -144.37,304.95 -395.72,631.46z"/>
  <path class="fil1" d="M2518.01 2107.53c-174.35,-323.94 -225.24,-513.24 -296.1,-559.53 -40.48,-26.44 -78.6,-10.97 -82,26.9 -7.76,86.63 141.7,259.57 378.1,532.63z"/>
  <polygon class="fil0" points="2529,2202.86 2378.29,2202.86 2073.67,1898.24 1769.05,2202.86 1618.33,2202.86 2073.67,1747.52 "/>
  <polygon class="fil0" points="2222.85,2201.87 2073.67,2052.68 1924.48,2201.87 "/>
  <g id="_1430570601008">
   <path class="fil0" d="M1382.72 2827.24c0,0.87 -0.03,1.58 -0.1,2.17 -0.07,0.59 -0.19,1.06 -0.35,1.41 -0.16,0.33 -0.33,0.6 -0.53,0.76 -0.2,0.18 -0.44,0.26 -0.69,0.26l-18.2 0 0 14.95 17.07 0c0.26,0 0.5,0.07 0.69,0.22 0.21,0.13 0.38,0.38 0.54,0.72 0.16,0.35 0.26,0.8 0.34,1.38 0.07,0.57 0.12,1.29 0.12,2.15 0,0.85 -0.05,1.57 -0.12,2.14 -0.07,0.57 -0.18,1.04 -0.34,1.42 -0.16,0.37 -0.33,0.63 -0.54,0.79 -0.19,0.16 -0.43,0.23 -0.69,0.23l-17.07 0 0 20.72c0,0.31 -0.09,0.59 -0.27,0.82 -0.16,0.22 -0.47,0.41 -0.92,0.57 -0.44,0.16 -1.03,0.28 -1.73,0.37 -0.72,0.09 -1.64,0.13 -2.76,0.13 -1.09,0 -2,-0.04 -2.73,-0.13 -0.73,-0.09 -1.32,-0.21 -1.74,-0.37 -0.43,-0.15 -0.73,-0.35 -0.93,-0.57 -0.19,-0.23 -0.28,-0.51 -0.28,-0.82l0 -50.4c0,-1.26 0.32,-2.17 0.96,-2.72 0.65,-0.56 1.44,-0.84 2.39,-0.84l26.2 0c0.25,0 0.48,0.07 0.69,0.24 0.19,0.16 0.37,0.41 0.53,0.78 0.16,0.35 0.28,0.84 0.35,1.44 0.07,0.6 0.1,1.33 0.1,2.19zm32.7 14.73c0,1.03 -0.03,1.88 -0.09,2.54 -0.06,0.66 -0.15,1.17 -0.25,1.54 -0.12,0.37 -0.28,0.63 -0.45,0.78 -0.19,0.15 -0.43,0.2 -0.72,0.2 -0.22,0 -0.48,-0.04 -0.78,-0.15 -0.28,-0.1 -0.6,-0.21 -0.97,-0.32 -0.35,-0.12 -0.75,-0.22 -1.17,-0.32 -0.44,-0.1 -0.91,-0.15 -1.42,-0.15 -0.6,0 -1.2,0.11 -1.8,0.37 -0.6,0.25 -1.23,0.61 -1.88,1.14 -0.64,0.51 -1.32,1.2 -2.02,2.05 -0.7,0.87 -1.45,1.92 -2.26,3.18l0 23.91c0,0.28 -0.09,0.53 -0.26,0.75 -0.16,0.22 -0.45,0.4 -0.88,0.54 -0.41,0.13 -0.97,0.25 -1.64,0.32 -0.69,0.07 -1.57,0.1 -2.63,0.1 -1.06,0 -1.93,-0.03 -2.62,-0.1 -0.68,-0.07 -1.23,-0.19 -1.64,-0.32 -0.43,-0.15 -0.72,-0.32 -0.88,-0.54 -0.18,-0.22 -0.26,-0.47 -0.26,-0.75l0 -38.35c0,-0.28 0.07,-0.53 0.22,-0.75 0.13,-0.22 0.4,-0.4 0.76,-0.54 0.38,-0.13 0.85,-0.25 1.44,-0.32 0.58,-0.07 1.33,-0.1 2.21,-0.1 0.92,0 1.67,0.03 2.27,0.1 0.6,0.07 1.07,0.19 1.41,0.32 0.32,0.15 0.56,0.32 0.7,0.54 0.15,0.22 0.22,0.47 0.22,0.75l0 4.78c1,-1.44 1.95,-2.61 2.83,-3.54 0.89,-0.92 1.74,-1.67 2.54,-2.21 0.81,-0.54 1.61,-0.93 2.42,-1.13 0.79,-0.22 1.6,-0.32 2.41,-0.32 0.37,0 0.78,0.02 1.2,0.06 0.43,0.04 0.88,0.12 1.33,0.22 0.45,0.1 0.87,0.22 1.2,0.34 0.35,0.13 0.6,0.26 0.76,0.41 0.15,0.15 0.26,0.31 0.34,0.47 0.07,0.18 0.13,0.41 0.19,0.72 0.06,0.29 0.1,0.74 0.13,1.35 0.03,0.6 0.05,1.41 0.05,2.43zm40.54 14.5c0,1.32 -0.29,2.29 -0.88,2.92 -0.59,0.63 -1.39,0.95 -2.43,0.95l-23.34 0c0,1.63 0.19,3.09 0.59,4.43 0.38,1.32 1,2.45 1.83,3.37 0.85,0.92 1.94,1.63 3.27,2.11 1.33,0.48 2.92,0.73 4.78,0.73 1.89,0 3.55,-0.13 4.98,-0.41 1.43,-0.28 2.67,-0.57 3.71,-0.91 1.04,-0.34 1.91,-0.63 2.59,-0.91 0.69,-0.28 1.24,-0.41 1.67,-0.41 0.26,0 0.48,0.04 0.65,0.15 0.18,0.1 0.32,0.28 0.44,0.54 0.1,0.25 0.19,0.61 0.23,1.08 0.04,0.47 0.06,1.07 0.06,1.78 0,0.63 -0.02,1.17 -0.04,1.61 -0.03,0.44 -0.07,0.82 -0.13,1.13 -0.06,0.32 -0.13,0.59 -0.25,0.79 -0.12,0.22 -0.26,0.43 -0.45,0.63 -0.19,0.19 -0.69,0.47 -1.53,0.82 -0.83,0.35 -1.89,0.69 -3.18,1.03 -1.29,0.33 -2.76,0.63 -4.41,0.88 -1.66,0.25 -3.43,0.38 -5.32,0.38 -3.42,0 -6.39,-0.43 -8.96,-1.29 -2.55,-0.85 -4.69,-2.15 -6.42,-3.9 -1.72,-1.74 -2.99,-3.96 -3.84,-6.61 -0.83,-2.67 -1.26,-5.79 -1.26,-9.37 0,-3.4 0.44,-6.46 1.33,-9.2 0.88,-2.73 2.17,-5.04 3.87,-6.95 1.69,-1.91 3.74,-3.36 6.16,-4.35 2.43,-1.01 5.16,-1.51 8.19,-1.51 3.21,0 5.95,0.47 8.22,1.42 2.29,0.94 4.15,2.26 5.61,3.93 1.45,1.67 2.54,3.67 3.23,5.95 0.69,2.29 1.02,4.78 1.02,7.48l0 1.72zm-10.46 -3.08c0.09,-3.04 -0.53,-5.43 -1.83,-7.15 -1.3,-1.74 -3.31,-2.61 -6.04,-2.61 -1.38,0 -2.58,0.26 -3.59,0.78 -1.03,0.52 -1.88,1.2 -2.55,2.08 -0.67,0.88 -1.19,1.91 -1.54,3.09 -0.37,1.2 -0.57,2.46 -0.63,3.81l16.19 0zm54.29 3.08c0,1.32 -0.29,2.29 -0.88,2.92 -0.59,0.63 -1.39,0.95 -2.43,0.95l-23.34 0c0,1.63 0.19,3.09 0.59,4.43 0.38,1.32 1,2.45 1.83,3.37 0.85,0.92 1.94,1.63 3.27,2.11 1.33,0.48 2.92,0.73 4.78,0.73 1.89,0 3.55,-0.13 4.98,-0.41 1.43,-0.28 2.67,-0.57 3.71,-0.91 1.04,-0.34 1.91,-0.63 2.59,-0.91 0.69,-0.28 1.24,-0.41 1.67,-0.41 0.26,0 0.48,0.04 0.65,0.15 0.18,0.1 0.32,0.28 0.44,0.54 0.1,0.25 0.19,0.61 0.23,1.08 0.04,0.47 0.06,1.07 0.06,1.78 0,0.63 -0.02,1.17 -0.04,1.61 -0.03,0.44 -0.07,0.82 -0.13,1.13 -0.06,0.32 -0.13,0.59 -0.25,0.79 -0.12,0.22 -0.26,0.43 -0.45,0.63 -0.19,0.19 -0.69,0.47 -1.53,0.82 -0.83,0.35 -1.89,0.69 -3.18,1.03 -1.29,0.33 -2.76,0.63 -4.41,0.88 -1.66,0.25 -3.43,0.38 -5.32,0.38 -3.42,0 -6.39,-0.43 -8.96,-1.29 -2.55,-0.85 -4.69,-2.15 -6.42,-3.9 -1.72,-1.74 -2.99,-3.96 -3.84,-6.61 -0.83,-2.67 -1.26,-5.79 -1.26,-9.37 0,-3.4 0.44,-6.46 1.33,-9.2 0.88,-2.73 2.17,-5.04 3.87,-6.95 1.69,-1.91 3.74,-3.36 6.16,-4.35 2.43,-1.01 5.16,-1.51 8.19,-1.51 3.21,0 5.95,0.47 8.22,1.42 2.29,0.94 4.15,2.26 5.61,3.93 1.45,1.67 2.54,3.67 3.23,5.95 0.69,2.29 1.02,4.78 1.02,7.48l0 1.72zm-10.46 -3.08c0.09,-3.04 -0.53,-5.43 -1.83,-7.15 -1.3,-1.74 -3.31,-2.61 -6.04,-2.61 -1.38,0 -2.58,0.26 -3.59,0.78 -1.03,0.52 -1.88,1.2 -2.55,2.08 -0.67,0.88 -1.19,1.91 -1.54,3.09 -0.37,1.2 -0.57,2.46 -0.63,3.81l16.19 0zm84.94 20.59c0.34,1.03 0.56,1.85 0.65,2.45 0.09,0.6 -0.03,1.06 -0.34,1.36 -0.32,0.3 -0.88,0.48 -1.69,0.56 -0.79,0.07 -1.91,0.1 -3.3,0.1 -1.46,0 -2.61,-0.02 -3.41,-0.06 -0.82,-0.04 -1.44,-0.13 -1.88,-0.26 -0.43,-0.13 -0.72,-0.31 -0.89,-0.54 -0.18,-0.22 -0.32,-0.53 -0.43,-0.89l-3.65 -11.17 -20.96 0 -3.5 10.86c-0.12,0.41 -0.26,0.75 -0.45,1.01 -0.18,0.28 -0.48,0.48 -0.89,0.65 -0.41,0.16 -1,0.26 -1.76,0.32 -0.76,0.06 -1.76,0.09 -2.99,0.09 -1.32,0 -2.35,-0.04 -3.09,-0.13 -0.75,-0.09 -1.26,-0.3 -1.54,-0.62 -0.3,-0.34 -0.4,-0.81 -0.31,-1.41 0.09,-0.6 0.31,-1.39 0.65,-2.41l17.12 -49.33c0.16,-0.48 0.37,-0.88 0.6,-1.17 0.22,-0.31 0.59,-0.53 1.09,-0.69 0.51,-0.16 1.2,-0.26 2.09,-0.31 0.88,-0.04 2.05,-0.06 3.52,-0.06 1.69,0 3.03,0.02 4.03,0.06 1.01,0.05 1.79,0.15 2.34,0.31 0.56,0.16 0.95,0.39 1.2,0.7 0.23,0.32 0.45,0.75 0.61,1.29l17.18 49.28zm-25.51 -40.81l-0.04 0 -7.74 23.65 15.6 0 -7.81 -23.65zm56.84 8.8c0,1.03 -0.03,1.88 -0.09,2.54 -0.06,0.66 -0.15,1.17 -0.25,1.54 -0.12,0.37 -0.28,0.63 -0.45,0.78 -0.19,0.15 -0.43,0.2 -0.72,0.2 -0.22,0 -0.48,-0.04 -0.78,-0.15 -0.28,-0.1 -0.6,-0.21 -0.97,-0.32 -0.35,-0.12 -0.75,-0.22 -1.17,-0.32 -0.44,-0.1 -0.91,-0.15 -1.42,-0.15 -0.6,0 -1.2,0.11 -1.8,0.37 -0.6,0.25 -1.23,0.61 -1.88,1.14 -0.64,0.51 -1.32,1.2 -2.02,2.05 -0.7,0.87 -1.45,1.92 -2.26,3.18l0 23.91c0,0.28 -0.09,0.53 -0.26,0.75 -0.16,0.22 -0.45,0.4 -0.88,0.54 -0.41,0.13 -0.97,0.25 -1.64,0.32 -0.69,0.07 -1.57,0.1 -2.63,0.1 -1.06,0 -1.93,-0.03 -2.62,-0.1 -0.68,-0.07 -1.23,-0.19 -1.64,-0.32 -0.43,-0.15 -0.72,-0.32 -0.88,-0.54 -0.18,-0.22 -0.26,-0.47 -0.26,-0.75l0 -38.35c0,-0.28 0.07,-0.53 0.22,-0.75 0.13,-0.22 0.4,-0.4 0.76,-0.54 0.38,-0.13 0.85,-0.25 1.44,-0.32 0.58,-0.07 1.33,-0.1 2.21,-0.1 0.92,0 1.67,0.03 2.27,0.1 0.6,0.07 1.07,0.19 1.41,0.32 0.32,0.15 0.56,0.32 0.7,0.54 0.15,0.22 0.22,0.47 0.22,0.75l0 4.78c1,-1.44 1.95,-2.61 2.83,-3.54 0.89,-0.92 1.74,-1.67 2.54,-2.21 0.81,-0.54 1.61,-0.93 2.42,-1.13 0.79,-0.22 1.6,-0.32 2.41,-0.32 0.37,0 0.78,0.02 1.2,0.06 0.43,0.04 0.88,0.12 1.33,0.22 0.45,0.1 0.87,0.22 1.2,0.34 0.35,0.13 0.6,0.26 0.76,0.41 0.15,0.15 0.26,0.31 0.34,0.47 0.07,0.18 0.13,0.41 0.19,0.72 0.06,0.29 0.1,0.74 0.13,1.35 0.03,0.6 0.05,1.41 0.05,2.43zm28.87 31c0,1.26 -0.07,2.23 -0.23,2.91 -0.16,0.67 -0.37,1.14 -0.63,1.41 -0.25,0.28 -0.63,0.53 -1.13,0.73 -0.52,0.22 -1.1,0.41 -1.78,0.56 -0.66,0.16 -1.39,0.28 -2.19,0.37 -0.79,0.09 -1.58,0.13 -2.39,0.13 -2.14,0 -4,-0.28 -5.58,-0.82 -1.57,-0.54 -2.87,-1.38 -3.91,-2.51 -1.03,-1.13 -1.79,-2.55 -2.28,-4.28 -0.48,-1.72 -0.73,-3.75 -0.73,-6.1l0 -19.63 -4.65 0c-0.54,0 -0.97,-0.33 -1.25,-1.01 -0.29,-0.67 -0.44,-1.8 -0.44,-3.39 0,-0.83 0.03,-1.54 0.1,-2.11 0.07,-0.57 0.19,-1.03 0.33,-1.36 0.13,-0.32 0.32,-0.56 0.54,-0.7 0.2,-0.15 0.47,-0.22 0.75,-0.22l4.6 0 0 -8.57c0,-0.28 0.07,-0.54 0.24,-0.78 0.16,-0.22 0.45,-0.41 0.87,-0.57 0.41,-0.16 0.98,-0.28 1.69,-0.35 0.7,-0.07 1.57,-0.1 2.61,-0.1 1.06,0 1.93,0.03 2.64,0.1 0.7,0.07 1.26,0.19 1.67,0.35 0.4,0.16 0.69,0.35 0.85,0.57 0.18,0.24 0.26,0.5 0.26,0.78l0 8.57 8.31 0c0.3,0 0.54,0.07 0.75,0.22 0.22,0.15 0.4,0.38 0.54,0.7 0.15,0.33 0.25,0.79 0.32,1.36 0.07,0.57 0.1,1.28 0.1,2.11 0,1.58 -0.15,2.71 -0.43,3.39 -0.29,0.68 -0.7,1.01 -1.24,1.01l-8.36 0 0 18c0,2.09 0.32,3.67 0.98,4.7 0.66,1.04 1.83,1.57 3.52,1.57 0.57,0 1.09,-0.04 1.54,-0.15 0.46,-0.1 0.87,-0.22 1.22,-0.35 0.37,-0.12 0.66,-0.24 0.91,-0.34 0.24,-0.1 0.47,-0.15 0.66,-0.15 0.17,0 0.33,0.04 0.5,0.15 0.15,0.1 0.28,0.3 0.37,0.6 0.07,0.29 0.16,0.7 0.24,1.22 0.07,0.53 0.1,1.17 0.1,1.98zm66.43 2.35c-0.18,0.69 -0.41,1.25 -0.72,1.66 -0.29,0.41 -0.75,0.73 -1.35,0.94 -0.6,0.22 -1.38,0.37 -2.32,0.44 -0.95,0.07 -2.15,0.1 -3.61,0.1 -1.63,0 -2.94,-0.03 -3.93,-0.1 -1,-0.07 -1.77,-0.22 -2.34,-0.44 -0.57,-0.2 -0.98,-0.53 -1.25,-0.94 -0.25,-0.41 -0.45,-0.97 -0.6,-1.66l-8.9 -35.24 -0.09 0 -8.41 35.24c-0.15,0.66 -0.34,1.2 -0.6,1.61 -0.25,0.41 -0.66,0.73 -1.22,0.97 -0.56,0.23 -1.32,0.38 -2.27,0.45 -0.97,0.07 -2.23,0.1 -3.8,0.1 -1.67,0 -2.99,-0.03 -3.97,-0.1 -0.98,-0.07 -1.77,-0.22 -2.34,-0.44 -0.57,-0.2 -0.98,-0.53 -1.25,-0.94 -0.25,-0.41 -0.47,-0.97 -0.63,-1.66l-12.62 -48.51c-0.26,-1.04 -0.39,-1.85 -0.43,-2.43 -0.03,-0.59 0.13,-1.04 0.48,-1.35 0.37,-0.32 0.95,-0.51 1.76,-0.58 0.82,-0.07 1.95,-0.11 3.4,-0.11 1.35,0 2.4,0.02 3.19,0.06 0.79,0.05 1.38,0.15 1.78,0.31 0.39,0.16 0.67,0.38 0.82,0.69 0.13,0.29 0.25,0.72 0.34,1.26l9.76 42.59 0.04 0 10.13 -42.28c0.12,-0.54 0.26,-1 0.45,-1.33 0.18,-0.35 0.5,-0.61 0.94,-0.79 0.44,-0.19 1.06,-0.32 1.83,-0.39 0.76,-0.07 1.8,-0.11 3.09,-0.11 1.38,0 2.46,0.03 3.28,0.09 0.82,0.06 1.45,0.17 1.89,0.37 0.44,0.19 0.76,0.45 0.97,0.79 0.2,0.34 0.35,0.81 0.47,1.38l10.5 42.28 0.09 0 9.68 -42.46c0.09,-0.45 0.2,-0.85 0.34,-1.19 0.15,-0.32 0.43,-0.59 0.82,-0.76 0.41,-0.19 0.98,-0.32 1.73,-0.39 0.74,-0.07 1.79,-0.11 3.13,-0.11 1.28,0 2.26,0.03 2.96,0.11 0.7,0.07 1.2,0.26 1.53,0.58 0.31,0.31 0.45,0.78 0.41,1.39 -0.04,0.62 -0.19,1.45 -0.45,2.52l-12.72 48.37zm55.41 -18.13c0,3.26 -0.43,6.23 -1.29,8.93 -0.87,2.68 -2.16,5 -3.92,6.95 -1.74,1.95 -3.93,3.44 -6.57,4.52 -2.64,1.06 -5.72,1.58 -9.24,1.58 -3.41,0 -6.37,-0.47 -8.9,-1.42 -2.52,-0.94 -4.62,-2.32 -6.27,-4.12 -1.66,-1.8 -2.89,-4.02 -3.7,-6.65 -0.81,-2.63 -1.2,-5.63 -1.2,-9.02 0,-3.26 0.44,-6.24 1.3,-8.94 0.88,-2.71 2.19,-5.03 3.94,-6.96 1.74,-1.92 3.93,-3.42 6.55,-4.49 2.61,-1.06 5.69,-1.58 9.21,-1.58 3.44,0 6.42,0.47 8.94,1.39 2.52,0.94 4.6,2.3 6.24,4.11 1.66,1.8 2.87,4.02 3.68,6.65 0.81,2.63 1.2,5.65 1.2,9.06zm-11.08 0.43c0,-1.89 -0.15,-3.63 -0.45,-5.22 -0.31,-1.6 -0.81,-2.98 -1.54,-4.15 -0.72,-1.17 -1.67,-2.1 -2.86,-2.76 -1.2,-0.66 -2.7,-0.98 -4.52,-0.98 -1.61,0 -3.02,0.3 -4.24,0.88 -1.2,0.59 -2.2,1.45 -2.98,2.58 -0.78,1.13 -1.36,2.49 -1.74,4.07 -0.4,1.6 -0.59,3.4 -0.59,5.44 0,1.89 0.16,3.63 0.47,5.22 0.32,1.6 0.83,2.98 1.54,4.15 0.7,1.17 1.66,2.08 2.87,2.73 1.2,0.64 2.7,0.96 4.48,0.96 1.64,0 3.06,-0.29 4.28,-0.88 1.2,-0.59 2.2,-1.44 2.98,-2.55 0.78,-1.13 1.35,-2.48 1.73,-4.06 0.37,-1.6 0.56,-3.4 0.56,-5.44zm43.83 -15.64c0,1.03 -0.03,1.88 -0.09,2.54 -0.06,0.66 -0.15,1.17 -0.25,1.54 -0.12,0.37 -0.28,0.63 -0.45,0.78 -0.19,0.15 -0.43,0.2 -0.72,0.2 -0.22,0 -0.48,-0.04 -0.78,-0.15 -0.28,-0.1 -0.6,-0.21 -0.97,-0.32 -0.35,-0.12 -0.75,-0.22 -1.17,-0.32 -0.44,-0.1 -0.91,-0.15 -1.42,-0.15 -0.6,0 -1.2,0.11 -1.8,0.37 -0.6,0.25 -1.23,0.61 -1.88,1.14 -0.64,0.51 -1.31,1.2 -2.02,2.05 -0.7,0.87 -1.45,1.92 -2.26,3.18l0 23.91c0,0.28 -0.09,0.53 -0.26,0.75 -0.16,0.22 -0.45,0.4 -0.88,0.54 -0.41,0.13 -0.97,0.25 -1.64,0.32 -0.69,0.07 -1.57,0.1 -2.63,0.1 -1.06,0 -1.93,-0.03 -2.62,-0.1 -0.68,-0.07 -1.23,-0.19 -1.64,-0.32 -0.43,-0.15 -0.72,-0.32 -0.88,-0.54 -0.18,-0.22 -0.26,-0.47 -0.26,-0.75l0 -38.35c0,-0.28 0.07,-0.53 0.22,-0.75 0.13,-0.22 0.4,-0.4 0.76,-0.54 0.38,-0.13 0.85,-0.25 1.44,-0.32 0.58,-0.07 1.33,-0.1 2.21,-0.1 0.92,0 1.67,0.03 2.27,0.1 0.6,0.07 1.07,0.19 1.41,0.32 0.32,0.15 0.56,0.32 0.7,0.54 0.15,0.22 0.22,0.47 0.22,0.75l0 4.78c1,-1.44 1.95,-2.61 2.83,-3.54 0.89,-0.92 1.74,-1.67 2.54,-2.21 0.8,-0.54 1.61,-0.93 2.41,-1.13 0.79,-0.22 1.6,-0.32 2.41,-0.32 0.37,0 0.78,0.02 1.2,0.06 0.43,0.04 0.88,0.12 1.33,0.22 0.45,0.1 0.87,0.22 1.2,0.34 0.35,0.13 0.6,0.26 0.76,0.41 0.15,0.15 0.26,0.31 0.34,0.47 0.07,0.18 0.13,0.41 0.19,0.72 0.06,0.29 0.1,0.74 0.13,1.35 0.03,0.6 0.05,1.41 0.05,2.43zm41.8 34.82c0,0.28 -0.07,0.53 -0.23,0.74 -0.16,0.22 -0.44,0.38 -0.87,0.52 -0.41,0.13 -0.98,0.23 -1.7,0.31 -0.72,0.07 -1.64,0.1 -2.8,0.1 -1.17,0 -2.13,-0.03 -2.86,-0.09 -0.73,-0.06 -1.33,-0.15 -1.8,-0.28 -0.47,-0.13 -0.83,-0.31 -1.1,-0.54 -0.26,-0.22 -0.48,-0.53 -0.69,-0.89l-12.76 -20.2 0 20.29c0,0.28 -0.09,0.53 -0.26,0.75 -0.16,0.22 -0.45,0.4 -0.88,0.54 -0.41,0.13 -0.97,0.25 -1.64,0.32 -0.69,0.07 -1.57,0.1 -2.63,0.1 -1.06,0 -1.93,-0.03 -2.62,-0.1 -0.68,-0.07 -1.23,-0.19 -1.64,-0.32 -0.43,-0.15 -0.72,-0.32 -0.88,-0.54 -0.18,-0.22 -0.26,-0.47 -0.26,-0.75l0 -56.51c0,-0.29 0.09,-0.54 0.26,-0.78 0.16,-0.22 0.46,-0.43 0.88,-0.57 0.41,-0.16 0.96,-0.28 1.64,-0.37 0.69,-0.09 1.57,-0.13 2.62,-0.13 1.06,0 1.94,0.04 2.63,0.13 0.67,0.09 1.23,0.2 1.64,0.37 0.43,0.15 0.72,0.35 0.88,0.57 0.18,0.24 0.26,0.48 0.26,0.78l0 33.65 11.35 -15.26c0.24,-0.35 0.48,-0.65 0.78,-0.91 0.28,-0.25 0.66,-0.46 1.13,-0.6 0.47,-0.13 1.06,-0.25 1.76,-0.32 0.7,-0.07 1.6,-0.1 2.68,-0.1 1.06,0 1.95,0.03 2.69,0.1 0.72,0.07 1.3,0.19 1.76,0.32 0.44,0.15 0.74,0.32 0.91,0.54 0.18,0.22 0.26,0.48 0.26,0.79 0,0.43 -0.1,0.89 -0.32,1.38 -0.22,0.48 -0.54,1 -0.97,1.56l-11.2 12.72 13 20.07c0.33,0.57 0.59,1.07 0.75,1.48 0.16,0.41 0.23,0.79 0.23,1.15zm32.41 -10.89c0,2.17 -0.41,4.09 -1.23,5.76 -0.81,1.66 -1.96,3.04 -3.46,4.17 -1.49,1.11 -3.25,1.95 -5.29,2.51 -2.04,0.56 -4.24,0.83 -6.61,0.83 -1.44,0 -2.81,-0.1 -4.12,-0.32 -1.31,-0.22 -2.46,-0.5 -3.5,-0.83 -1.03,-0.32 -1.89,-0.66 -2.58,-1.01 -0.69,-0.35 -1.19,-0.68 -1.5,-0.98 -0.32,-0.31 -0.57,-0.78 -0.73,-1.42 -0.17,-0.63 -0.26,-1.58 -0.26,-2.84 0,-0.82 0.03,-1.48 0.09,-1.98 0.06,-0.5 0.15,-0.91 0.25,-1.2 0.12,-0.3 0.26,-0.5 0.44,-0.6 0.16,-0.1 0.38,-0.15 0.64,-0.15 0.31,0 0.78,0.17 1.39,0.54 0.62,0.37 1.38,0.76 2.3,1.19 0.91,0.44 1.98,0.85 3.2,1.22 1.22,0.38 2.61,0.57 4.15,0.57 0.97,0 1.85,-0.1 2.59,-0.31 0.76,-0.19 1.42,-0.48 1.98,-0.86 0.56,-0.37 0.98,-0.84 1.28,-1.43 0.28,-0.57 0.43,-1.23 0.43,-1.98 0,-0.87 -0.26,-1.6 -0.79,-2.22 -0.54,-0.61 -1.25,-1.16 -2.11,-1.61 -0.88,-0.46 -1.88,-0.88 -2.98,-1.29 -1.1,-0.39 -2.24,-0.83 -3.4,-1.33 -1.16,-0.48 -2.3,-1.04 -3.4,-1.67 -1.1,-0.63 -2.09,-1.39 -2.98,-2.31 -0.86,-0.91 -1.57,-2.02 -2.11,-3.3 -0.53,-1.29 -0.79,-2.85 -0.79,-4.65 0,-1.83 0.37,-3.5 1.08,-5.04 0.72,-1.53 1.75,-2.85 3.09,-3.93 1.36,-1.09 3,-1.94 4.94,-2.54 1.95,-0.6 4.12,-0.89 6.54,-0.89 1.22,0 2.37,0.09 3.52,0.25 1.13,0.17 2.17,0.39 3.08,0.64 0.93,0.26 1.7,0.53 2.33,0.84 0.63,0.29 1.09,0.56 1.37,0.76 0.28,0.22 0.47,0.43 0.58,0.65 0.11,0.22 0.19,0.47 0.25,0.78 0.06,0.3 0.12,0.68 0.16,1.11 0.04,0.44 0.06,1 0.06,1.66 0,0.78 -0.02,1.41 -0.06,1.89 -0.04,0.48 -0.12,0.88 -0.22,1.16 -0.1,0.29 -0.24,0.48 -0.41,0.59 -0.18,0.1 -0.38,0.15 -0.6,0.15 -0.26,0 -0.67,-0.15 -1.22,-0.46 -0.54,-0.29 -1.23,-0.61 -2.05,-0.95 -0.82,-0.33 -1.78,-0.66 -2.85,-0.95 -1.08,-0.31 -2.31,-0.45 -3.69,-0.45 -0.98,0 -1.83,0.1 -2.55,0.29 -0.72,0.21 -1.3,0.5 -1.77,0.87 -0.46,0.37 -0.81,0.81 -1.03,1.31 -0.24,0.5 -0.35,1.04 -0.35,1.59 0,0.9 0.28,1.64 0.82,2.24 0.54,0.6 1.26,1.13 2.15,1.58 0.88,0.46 1.91,0.89 3.04,1.29 1.13,0.39 2.29,0.83 3.44,1.3 1.16,0.47 2.31,1.03 3.44,1.66 1.13,0.63 2.16,1.41 3.04,2.31 0.89,0.93 1.61,2.01 2.15,3.28 0.54,1.28 0.82,2.79 0.82,4.53z"/>
   <path class="fil0" d="M1913.79 2823.81c0,0.83 -0.03,1.5 -0.09,2.01 -0.06,0.5 -0.15,0.89 -0.25,1.16 -0.12,0.28 -0.25,0.46 -0.4,0.56 -0.13,0.1 -0.29,0.15 -0.47,0.15 -0.2,0 -0.43,-0.04 -0.66,-0.15 -0.25,-0.1 -0.54,-0.21 -0.91,-0.32 -0.35,-0.12 -0.78,-0.22 -1.26,-0.32 -0.48,-0.1 -1.06,-0.15 -1.72,-0.15 -0.76,0 -1.44,0.11 -2,0.37 -0.56,0.23 -1.02,0.63 -1.39,1.16 -0.37,0.53 -0.65,1.22 -0.81,2.05 -0.18,0.85 -0.26,1.88 -0.26,3.11l0 3.52 7.02 0c0.27,0 0.5,0.07 0.72,0.22 0.22,0.15 0.39,0.38 0.54,0.7 0.13,0.33 0.25,0.79 0.32,1.36 0.07,0.57 0.1,1.28 0.1,2.11 0,1.58 -0.15,2.71 -0.43,3.39 -0.3,0.68 -0.7,1.01 -1.26,1.01l-7.02 0 0 31c0,0.28 -0.09,0.53 -0.26,0.75 -0.16,0.22 -0.46,0.4 -0.85,0.54 -0.41,0.13 -0.97,0.25 -1.69,0.32 -0.72,0.07 -1.6,0.1 -2.63,0.1 -1.04,0 -1.91,-0.03 -2.61,-0.1 -0.7,-0.07 -1.27,-0.19 -1.69,-0.32 -0.41,-0.15 -0.7,-0.32 -0.86,-0.54 -0.16,-0.22 -0.24,-0.47 -0.24,-0.75l0 -31 -4.8 0c-0.54,0 -0.95,-0.33 -1.22,-1.01 -0.28,-0.67 -0.41,-1.8 -0.41,-3.39 0,-0.83 0.03,-1.54 0.1,-2.11 0.07,-0.57 0.18,-1.03 0.31,-1.36 0.13,-0.32 0.3,-0.56 0.52,-0.7 0.2,-0.15 0.45,-0.22 0.75,-0.22l4.75 0 0 -3.22c0,-2.61 0.26,-4.9 0.78,-6.86 0.52,-1.95 1.32,-3.59 2.42,-4.89 1.11,-1.31 2.52,-2.29 4.22,-2.95 1.7,-0.66 3.72,-0.98 6.04,-0.98 1.11,0 2.17,0.09 3.18,0.28 1,0.19 1.79,0.39 2.36,0.6 0.57,0.22 0.96,0.43 1.16,0.6 0.2,0.19 0.37,0.47 0.5,0.82 0.13,0.37 0.22,0.82 0.28,1.38 0.06,0.57 0.09,1.26 0.09,2.1zm41.7 33.38c0,3.26 -0.43,6.23 -1.29,8.93 -0.87,2.68 -2.16,5 -3.92,6.95 -1.74,1.95 -3.93,3.44 -6.57,4.52 -2.64,1.06 -5.72,1.58 -9.24,1.58 -3.41,0 -6.37,-0.47 -8.9,-1.42 -2.52,-0.94 -4.62,-2.32 -6.27,-4.12 -1.66,-1.8 -2.89,-4.02 -3.7,-6.65 -0.81,-2.63 -1.2,-5.63 -1.2,-9.02 0,-3.26 0.44,-6.24 1.3,-8.94 0.88,-2.71 2.19,-5.03 3.94,-6.96 1.74,-1.92 3.93,-3.42 6.55,-4.49 2.61,-1.06 5.69,-1.58 9.21,-1.58 3.44,0 6.42,0.47 8.94,1.39 2.52,0.94 4.6,2.3 6.24,4.11 1.66,1.8 2.87,4.02 3.68,6.65 0.81,2.63 1.2,5.65 1.2,9.06zm-11.08 0.43c0,-1.89 -0.15,-3.63 -0.45,-5.22 -0.31,-1.6 -0.81,-2.98 -1.54,-4.15 -0.72,-1.17 -1.67,-2.1 -2.86,-2.76 -1.2,-0.66 -2.7,-0.98 -4.52,-0.98 -1.61,0 -3.02,0.3 -4.24,0.88 -1.2,0.59 -2.2,1.45 -2.98,2.58 -0.78,1.13 -1.36,2.49 -1.74,4.07 -0.4,1.6 -0.59,3.4 -0.59,5.44 0,1.89 0.16,3.63 0.47,5.22 0.32,1.6 0.83,2.98 1.54,4.15 0.7,1.17 1.66,2.08 2.87,2.73 1.2,0.64 2.7,0.96 4.48,0.96 1.64,0 3.06,-0.29 4.28,-0.88 1.2,-0.59 2.2,-1.44 2.98,-2.55 0.78,-1.13 1.35,-2.48 1.73,-4.06 0.37,-1.6 0.56,-3.4 0.56,-5.44zm43.84 -15.64c0,1.03 -0.03,1.88 -0.09,2.54 -0.06,0.66 -0.15,1.17 -0.25,1.54 -0.12,0.37 -0.28,0.63 -0.45,0.78 -0.19,0.15 -0.43,0.2 -0.72,0.2 -0.22,0 -0.48,-0.04 -0.78,-0.15 -0.28,-0.1 -0.6,-0.21 -0.97,-0.32 -0.35,-0.12 -0.75,-0.22 -1.17,-0.32 -0.44,-0.1 -0.91,-0.15 -1.42,-0.15 -0.6,0 -1.2,0.11 -1.8,0.37 -0.6,0.25 -1.23,0.61 -1.88,1.14 -0.64,0.51 -1.32,1.2 -2.02,2.05 -0.7,0.87 -1.45,1.92 -2.26,3.18l0 23.91c0,0.28 -0.09,0.53 -0.26,0.75 -0.16,0.22 -0.45,0.4 -0.88,0.54 -0.41,0.13 -0.97,0.25 -1.64,0.32 -0.69,0.07 -1.57,0.1 -2.63,0.1 -1.06,0 -1.93,-0.03 -2.62,-0.1 -0.68,-0.07 -1.23,-0.19 -1.64,-0.32 -0.43,-0.15 -0.72,-0.32 -0.88,-0.54 -0.18,-0.22 -0.26,-0.47 -0.26,-0.75l0 -38.35c0,-0.28 0.07,-0.53 0.22,-0.75 0.13,-0.22 0.4,-0.4 0.76,-0.54 0.38,-0.13 0.85,-0.25 1.44,-0.32 0.58,-0.07 1.33,-0.1 2.21,-0.1 0.92,0 1.67,0.03 2.27,0.1 0.6,0.07 1.07,0.19 1.41,0.32 0.32,0.15 0.56,0.32 0.7,0.54 0.15,0.22 0.22,0.47 0.22,0.75l0 4.78c1,-1.44 1.95,-2.61 2.83,-3.54 0.89,-0.92 1.74,-1.67 2.54,-2.21 0.81,-0.54 1.61,-0.93 2.42,-1.13 0.79,-0.22 1.6,-0.32 2.41,-0.32 0.37,0 0.78,0.02 1.2,0.06 0.43,0.04 0.88,0.12 1.33,0.22 0.45,0.1 0.87,0.22 1.2,0.34 0.35,0.13 0.6,0.26 0.76,0.41 0.15,0.15 0.26,0.31 0.34,0.47 0.07,0.18 0.13,0.41 0.19,0.72 0.06,0.29 0.1,0.74 0.13,1.35 0.03,0.6 0.05,1.41 0.05,2.43zm70.03 34.69c0,0.28 -0.09,0.54 -0.28,0.78 -0.19,0.22 -0.5,0.41 -0.93,0.56 -0.43,0.13 -1,0.25 -1.71,0.34 -0.7,0.09 -1.61,0.13 -2.69,0.13 -1.11,0 -2.04,-0.04 -2.77,-0.13 -0.74,-0.09 -1.29,-0.21 -1.72,-0.34 -0.41,-0.15 -0.7,-0.34 -0.89,-0.56 -0.19,-0.23 -0.28,-0.5 -0.28,-0.78l0 -22.47 -20.85 0 0 22.47c0,0.28 -0.09,0.54 -0.26,0.78 -0.16,0.22 -0.47,0.41 -0.89,0.56 -0.43,0.13 -1,0.25 -1.72,0.34 -0.7,0.09 -1.63,0.13 -2.72,0.13 -1.09,0 -2,-0.04 -2.73,-0.13 -0.73,-0.09 -1.3,-0.21 -1.73,-0.34 -0.43,-0.15 -0.73,-0.34 -0.93,-0.56 -0.19,-0.23 -0.28,-0.5 -0.28,-0.78l0 -52.51c0,-0.28 0.09,-0.54 0.28,-0.78 0.19,-0.22 0.5,-0.41 0.93,-0.56 0.43,-0.15 1,-0.25 1.73,-0.34 0.73,-0.09 1.64,-0.13 2.73,-0.13 1.1,0 2.02,0.05 2.72,0.13 0.72,0.09 1.29,0.2 1.72,0.34 0.43,0.15 0.73,0.33 0.89,0.56 0.18,0.24 0.26,0.5 0.26,0.78l0 20.45 20.85 0 0 -20.45c0,-0.28 0.09,-0.54 0.28,-0.78 0.19,-0.22 0.48,-0.41 0.89,-0.56 0.43,-0.13 0.98,-0.25 1.72,-0.34 0.73,-0.09 1.65,-0.13 2.77,-0.13 1.07,0 1.98,0.05 2.69,0.13 0.72,0.09 1.29,0.19 1.71,0.34 0.43,0.15 0.73,0.33 0.93,0.56 0.19,0.24 0.28,0.5 0.28,0.78l0 52.51zm49.74 -19.47c0,3.26 -0.43,6.23 -1.29,8.93 -0.87,2.68 -2.16,5 -3.92,6.95 -1.74,1.95 -3.93,3.44 -6.57,4.52 -2.64,1.06 -5.72,1.58 -9.24,1.58 -3.41,0 -6.37,-0.47 -8.9,-1.42 -2.52,-0.94 -4.62,-2.32 -6.27,-4.12 -1.66,-1.8 -2.89,-4.02 -3.7,-6.65 -0.81,-2.63 -1.2,-5.63 -1.2,-9.02 0,-3.26 0.44,-6.24 1.3,-8.94 0.88,-2.71 2.19,-5.03 3.94,-6.96 1.74,-1.92 3.93,-3.42 6.55,-4.49 2.61,-1.06 5.69,-1.58 9.21,-1.58 3.44,0 6.42,0.47 8.94,1.39 2.52,0.94 4.6,2.3 6.24,4.11 1.66,1.8 2.87,4.02 3.68,6.65 0.81,2.63 1.2,5.65 1.2,9.06zm-11.08 0.43c0,-1.89 -0.15,-3.63 -0.45,-5.22 -0.31,-1.6 -0.81,-2.98 -1.54,-4.15 -0.72,-1.17 -1.67,-2.1 -2.86,-2.76 -1.2,-0.66 -2.7,-0.98 -4.52,-0.98 -1.61,0 -3.02,0.3 -4.24,0.88 -1.2,0.59 -2.2,1.45 -2.98,2.58 -0.78,1.13 -1.36,2.49 -1.74,4.07 -0.4,1.6 -0.59,3.4 -0.59,5.44 0,1.89 0.16,3.63 0.47,5.22 0.32,1.6 0.83,2.98 1.54,4.15 0.7,1.17 1.66,2.08 2.87,2.73 1.2,0.64 2.7,0.96 4.48,0.96 1.64,0 3.06,-0.29 4.28,-0.88 1.2,-0.59 2.2,-1.44 2.98,-2.55 0.78,-1.13 1.35,-2.48 1.73,-4.06 0.37,-1.6 0.56,-3.4 0.56,-5.44zm80.16 19.13c0,0.28 -0.09,0.53 -0.26,0.75 -0.16,0.22 -0.45,0.4 -0.85,0.54 -0.41,0.13 -0.95,0.25 -1.64,0.32 -0.69,0.07 -1.57,0.1 -2.62,0.1 -1.1,0 -1.99,-0.03 -2.68,-0.1 -0.69,-0.07 -1.25,-0.19 -1.66,-0.32 -0.41,-0.15 -0.7,-0.32 -0.87,-0.54 -0.16,-0.22 -0.23,-0.47 -0.23,-0.75l0 -22.72c0,-1.29 -0.12,-2.46 -0.37,-3.52 -0.23,-1.07 -0.61,-1.98 -1.11,-2.72 -0.5,-0.76 -1.13,-1.35 -1.87,-1.78 -0.76,-0.41 -1.66,-0.61 -2.71,-0.61 -1.29,0 -2.59,0.5 -3.9,1.51 -1.32,1 -2.74,2.46 -4.28,4.37l0 25.48c0,0.28 -0.09,0.53 -0.26,0.75 -0.16,0.22 -0.45,0.4 -0.88,0.54 -0.41,0.13 -0.97,0.25 -1.66,0.32 -0.69,0.07 -1.56,0.1 -2.58,0.1 -1.07,0 -1.95,-0.03 -2.64,-0.1 -0.69,-0.07 -1.25,-0.19 -1.66,-0.32 -0.43,-0.15 -0.72,-0.32 -0.88,-0.54 -0.17,-0.22 -0.26,-0.47 -0.26,-0.75l0 -22.72c0,-1.29 -0.11,-2.46 -0.37,-3.52 -0.23,-1.07 -0.6,-1.98 -1.1,-2.72 -0.48,-0.76 -1.11,-1.35 -1.88,-1.78 -0.78,-0.41 -1.69,-0.61 -2.71,-0.61 -1.32,0 -2.63,0.5 -3.94,1.51 -1.32,1 -2.74,2.46 -4.25,4.37l0 25.48c0,0.28 -0.09,0.53 -0.26,0.75 -0.16,0.22 -0.45,0.4 -0.88,0.54 -0.41,0.13 -0.97,0.25 -1.64,0.32 -0.69,0.07 -1.57,0.1 -2.63,0.1 -1.06,0 -1.93,-0.03 -2.62,-0.1 -0.68,-0.07 -1.23,-0.19 -1.64,-0.32 -0.43,-0.15 -0.72,-0.32 -0.88,-0.54 -0.18,-0.22 -0.26,-0.47 -0.26,-0.75l0 -38.35c0,-0.28 0.07,-0.53 0.22,-0.75 0.13,-0.22 0.4,-0.4 0.76,-0.54 0.38,-0.13 0.85,-0.25 1.44,-0.32 0.58,-0.07 1.33,-0.1 2.21,-0.1 0.92,0 1.67,0.03 2.27,0.1 0.6,0.07 1.07,0.19 1.41,0.32 0.32,0.15 0.56,0.32 0.7,0.54 0.15,0.22 0.22,0.47 0.22,0.75l0 4.43c2.11,-2.29 4.22,-3.99 6.33,-5.13 2.11,-1.14 4.31,-1.72 6.6,-1.72 1.58,0 3,0.16 4.27,0.5 1.26,0.32 2.37,0.79 3.37,1.41 0.98,0.62 1.83,1.35 2.55,2.2 0.72,0.87 1.32,1.82 1.8,2.87 1.14,-1.23 2.27,-2.29 3.37,-3.17 1.1,-0.88 2.2,-1.61 3.27,-2.17 1.07,-0.56 2.14,-0.96 3.22,-1.23 1.07,-0.28 2.15,-0.41 3.28,-0.41 2.54,0 4.69,0.43 6.43,1.29 1.75,0.85 3.15,2.02 4.22,3.5 1.08,1.46 1.85,3.2 2.3,5.17 0.46,1.98 0.69,4.06 0.69,6.28l0 24.52zm45.49 -20.27c0,1.32 -0.29,2.29 -0.88,2.92 -0.59,0.63 -1.39,0.95 -2.43,0.95l-23.34 0c0,1.63 0.19,3.09 0.59,4.43 0.38,1.32 1,2.45 1.83,3.37 0.85,0.92 1.94,1.63 3.27,2.11 1.33,0.48 2.92,0.73 4.78,0.73 1.89,0 3.55,-0.13 4.98,-0.41 1.43,-0.28 2.67,-0.57 3.71,-0.91 1.04,-0.34 1.91,-0.63 2.59,-0.91 0.69,-0.28 1.24,-0.41 1.67,-0.41 0.26,0 0.48,0.04 0.65,0.15 0.18,0.1 0.32,0.28 0.44,0.54 0.1,0.25 0.19,0.61 0.23,1.08 0.04,0.47 0.06,1.07 0.06,1.78 0,0.63 -0.02,1.17 -0.04,1.61 -0.03,0.44 -0.07,0.82 -0.13,1.13 -0.06,0.32 -0.13,0.59 -0.25,0.79 -0.12,0.22 -0.26,0.43 -0.45,0.63 -0.19,0.19 -0.69,0.47 -1.53,0.82 -0.83,0.35 -1.89,0.69 -3.18,1.03 -1.29,0.33 -2.76,0.63 -4.41,0.88 -1.66,0.25 -3.43,0.38 -5.32,0.38 -3.42,0 -6.39,-0.43 -8.96,-1.29 -2.55,-0.85 -4.69,-2.15 -6.42,-3.9 -1.72,-1.74 -2.99,-3.96 -3.84,-6.61 -0.83,-2.67 -1.26,-5.79 -1.26,-9.37 0,-3.4 0.44,-6.46 1.33,-9.2 0.88,-2.73 2.17,-5.04 3.87,-6.95 1.69,-1.91 3.74,-3.36 6.16,-4.35 2.43,-1.01 5.16,-1.51 8.19,-1.51 3.21,0 5.95,0.47 8.22,1.42 2.29,0.94 4.15,2.26 5.61,3.93 1.45,1.67 2.54,3.67 3.23,5.95 0.69,2.29 1.02,4.78 1.02,7.48l0 1.72zm-10.46 -3.08c0.09,-3.04 -0.53,-5.43 -1.83,-7.15 -1.3,-1.74 -3.31,-2.61 -6.04,-2.61 -1.38,0 -2.58,0.26 -3.59,0.78 -1.03,0.52 -1.88,1.2 -2.55,2.08 -0.67,0.88 -1.19,1.91 -1.54,3.09 -0.37,1.2 -0.57,2.46 -0.63,3.81l16.19 0zm45.93 12.5c0,2.17 -0.41,4.09 -1.23,5.76 -0.81,1.66 -1.96,3.04 -3.46,4.17 -1.49,1.11 -3.25,1.95 -5.29,2.51 -2.04,0.56 -4.24,0.83 -6.61,0.83 -1.44,0 -2.81,-0.1 -4.12,-0.32 -1.31,-0.22 -2.46,-0.5 -3.5,-0.83 -1.03,-0.32 -1.89,-0.66 -2.58,-1.01 -0.69,-0.35 -1.19,-0.68 -1.5,-0.98 -0.32,-0.31 -0.57,-0.78 -0.73,-1.42 -0.17,-0.63 -0.26,-1.58 -0.26,-2.84 0,-0.82 0.03,-1.48 0.09,-1.98 0.06,-0.5 0.15,-0.91 0.25,-1.2 0.12,-0.3 0.26,-0.5 0.44,-0.6 0.16,-0.1 0.38,-0.15 0.64,-0.15 0.31,0 0.78,0.17 1.39,0.54 0.62,0.37 1.38,0.76 2.3,1.19 0.91,0.44 1.98,0.85 3.2,1.22 1.22,0.38 2.61,0.57 4.15,0.57 0.97,0 1.85,-0.1 2.59,-0.31 0.76,-0.19 1.42,-0.48 1.98,-0.86 0.56,-0.37 0.98,-0.84 1.28,-1.43 0.28,-0.57 0.43,-1.23 0.43,-1.98 0,-0.87 -0.26,-1.6 -0.79,-2.22 -0.54,-0.61 -1.25,-1.16 -2.11,-1.61 -0.88,-0.46 -1.88,-0.88 -2.98,-1.29 -1.1,-0.39 -2.24,-0.83 -3.4,-1.33 -1.16,-0.48 -2.3,-1.04 -3.4,-1.67 -1.1,-0.63 -2.09,-1.39 -2.98,-2.31 -0.86,-0.91 -1.57,-2.02 -2.11,-3.3 -0.53,-1.29 -0.79,-2.85 -0.79,-4.65 0,-1.83 0.37,-3.5 1.08,-5.04 0.72,-1.53 1.75,-2.85 3.09,-3.93 1.36,-1.09 3,-1.94 4.94,-2.54 1.95,-0.6 4.12,-0.89 6.54,-0.89 1.22,0 2.37,0.09 3.52,0.25 1.13,0.17 2.17,0.39 3.08,0.64 0.93,0.26 1.7,0.53 2.33,0.84 0.63,0.29 1.09,0.56 1.37,0.76 0.28,0.22 0.47,0.43 0.58,0.65 0.11,0.22 0.19,0.47 0.25,0.78 0.06,0.3 0.12,0.68 0.16,1.11 0.04,0.44 0.06,1 0.06,1.66 0,0.78 -0.02,1.41 -0.06,1.89 -0.04,0.48 -0.12,0.88 -0.22,1.16 -0.1,0.29 -0.24,0.48 -0.41,0.59 -0.18,0.1 -0.38,0.15 -0.6,0.15 -0.26,0 -0.67,-0.15 -1.22,-0.46 -0.54,-0.29 -1.23,-0.61 -2.05,-0.95 -0.82,-0.33 -1.78,-0.66 -2.85,-0.95 -1.08,-0.31 -2.31,-0.45 -3.69,-0.45 -0.98,0 -1.83,0.1 -2.55,0.29 -0.72,0.21 -1.3,0.5 -1.77,0.87 -0.46,0.37 -0.81,0.81 -1.03,1.31 -0.24,0.5 -0.35,1.04 -0.35,1.59 0,0.9 0.28,1.64 0.82,2.24 0.54,0.6 1.26,1.13 2.15,1.58 0.88,0.46 1.91,0.89 3.04,1.29 1.13,0.39 2.29,0.83 3.44,1.3 1.16,0.47 2.31,1.03 3.44,1.66 1.13,0.63 2.16,1.41 3.04,2.31 0.89,0.93 1.61,2.01 2.15,3.28 0.54,1.28 0.82,2.79 0.82,4.53zm60.14 10.98c0,0.39 -0.15,0.7 -0.43,0.94 -0.3,0.24 -0.75,0.4 -1.37,0.5 -0.61,0.1 -1.52,0.15 -2.74,0.15 -1.29,0 -2.23,-0.04 -2.81,-0.15 -0.59,-0.1 -1.01,-0.26 -1.24,-0.5 -0.25,-0.23 -0.37,-0.54 -0.37,-0.94l0 -3.05c-1.59,1.69 -3.37,2.99 -5.4,3.93 -2.01,0.94 -4.25,1.41 -6.71,1.41 -2.02,0 -3.9,-0.26 -5.6,-0.79 -1.7,-0.53 -3.17,-1.32 -4.41,-2.36 -1.25,-1.06 -2.21,-2.35 -2.9,-3.89 -0.69,-1.55 -1.03,-3.35 -1.03,-5.41 0,-2.24 0.44,-4.18 1.3,-5.82 0.88,-1.65 2.19,-3 3.92,-4.09 1.73,-1.07 3.87,-1.86 6.45,-2.37 2.56,-0.51 5.56,-0.78 8.96,-0.78l3.74 0 0 -2.31c0,-1.2 -0.11,-2.26 -0.37,-3.17 -0.23,-0.89 -0.65,-1.65 -1.2,-2.26 -0.56,-0.6 -1.29,-1.04 -2.23,-1.33 -0.93,-0.28 -2.08,-0.43 -3.44,-0.43 -1.8,0 -3.42,0.2 -4.82,0.6 -1.42,0.39 -2.67,0.85 -3.75,1.33 -1.09,0.48 -2,0.94 -2.73,1.33 -0.73,0.4 -1.32,0.6 -1.77,0.6 -0.32,0 -0.6,-0.1 -0.84,-0.29 -0.25,-0.21 -0.45,-0.5 -0.6,-0.87 -0.16,-0.37 -0.28,-0.83 -0.37,-1.38 -0.09,-0.54 -0.13,-1.15 -0.13,-1.79 0,-0.9 0.07,-1.6 0.22,-2.11 0.13,-0.51 0.41,-0.96 0.81,-1.39 0.41,-0.41 1.1,-0.87 2.11,-1.37 1,-0.5 2.17,-0.96 3.52,-1.39 1.35,-0.44 2.81,-0.79 4.4,-1.06 1.59,-0.28 3.24,-0.41 4.93,-0.41 3,0 5.57,0.3 7.71,0.88 2.13,0.59 3.89,1.5 5.25,2.71 1.38,1.22 2.39,2.78 3.02,4.7 0.63,1.91 0.94,4.19 0.94,6.81l0 25.79zm-10.65 -16.45l-4.12 0c-1.74,0 -3.22,0.13 -4.46,0.38 -1.23,0.26 -2.23,0.65 -3,1.17 -0.78,0.51 -1.33,1.13 -1.69,1.86 -0.37,0.73 -0.54,1.57 -0.54,2.5 0,1.61 0.51,2.87 1.52,3.78 1.01,0.93 2.42,1.38 4.22,1.38 1.51,0 2.91,-0.38 4.18,-1.16 1.28,-0.78 2.56,-1.91 3.88,-3.4l0 -6.52zm57.56 16.31c0,0.28 -0.09,0.53 -0.26,0.75 -0.16,0.22 -0.45,0.4 -0.85,0.54 -0.41,0.13 -0.97,0.25 -1.67,0.32 -0.7,0.07 -1.57,0.1 -2.6,0.1 -1.07,0 -1.95,-0.03 -2.65,-0.1 -0.7,-0.07 -1.26,-0.19 -1.67,-0.32 -0.39,-0.15 -0.69,-0.32 -0.85,-0.54 -0.18,-0.22 -0.26,-0.47 -0.26,-0.75l0 -21.85c0,-1.86 -0.13,-3.33 -0.41,-4.39 -0.26,-1.07 -0.66,-1.98 -1.17,-2.72 -0.51,-0.76 -1.19,-1.35 -1.99,-1.78 -0.82,-0.41 -1.76,-0.61 -2.85,-0.61 -1.38,0 -2.76,0.5 -4.16,1.51 -1.39,1 -2.86,2.46 -4.37,4.37l0 25.48c0,0.28 -0.09,0.53 -0.26,0.75 -0.16,0.22 -0.45,0.4 -0.88,0.54 -0.41,0.13 -0.97,0.25 -1.64,0.32 -0.69,0.07 -1.57,0.1 -2.63,0.1 -1.06,0 -1.93,-0.03 -2.62,-0.1 -0.68,-0.07 -1.23,-0.19 -1.64,-0.32 -0.43,-0.15 -0.72,-0.32 -0.88,-0.54 -0.18,-0.22 -0.26,-0.47 -0.26,-0.75l0 -38.35c0,-0.28 0.07,-0.53 0.22,-0.75 0.13,-0.22 0.4,-0.4 0.76,-0.54 0.38,-0.13 0.85,-0.25 1.44,-0.32 0.58,-0.07 1.33,-0.1 2.21,-0.1 0.92,0 1.67,0.03 2.27,0.1 0.6,0.07 1.07,0.19 1.41,0.32 0.32,0.15 0.56,0.32 0.7,0.54 0.15,0.22 0.22,0.47 0.22,0.75l0 4.43c2.11,-2.29 4.26,-3.99 6.46,-5.13 2.19,-1.14 4.47,-1.72 6.85,-1.72 2.61,0 4.8,0.43 6.59,1.29 1.79,0.85 3.23,2.02 4.34,3.5 1.1,1.46 1.89,3.2 2.37,5.17 0.48,1.98 0.73,4.35 0.73,7.13l0 23.67zm46.48 0c0,0.31 -0.07,0.57 -0.22,0.79 -0.13,0.22 -0.38,0.4 -0.72,0.54 -0.35,0.13 -0.82,0.24 -1.41,0.3 -0.59,0.06 -1.3,0.09 -2.15,0.09 -0.93,0 -1.67,-0.03 -2.24,-0.09 -0.57,-0.06 -1.02,-0.16 -1.39,-0.3 -0.35,-0.15 -0.61,-0.33 -0.76,-0.54 -0.16,-0.22 -0.25,-0.48 -0.25,-0.8l0 -4.27c-1.96,2.13 -4.05,3.77 -6.2,4.94 -2.17,1.17 -4.56,1.76 -7.2,1.76 -2.92,0 -5.39,-0.57 -7.4,-1.7 -2.02,-1.13 -3.67,-2.65 -4.94,-4.57 -1.28,-1.91 -2.2,-4.15 -2.77,-6.71 -0.57,-2.57 -0.86,-5.26 -0.86,-8.09 0,-3.4 0.37,-6.46 1.1,-9.19 0.73,-2.71 1.79,-5.03 3.2,-6.95 1.41,-1.92 3.15,-3.39 5.25,-4.43 2.08,-1.02 4.48,-1.54 7.21,-1.54 2.14,0 4.09,0.44 5.83,1.31 1.76,0.88 3.49,2.15 5.2,3.84l0 -20.71c0,-0.3 0.07,-0.54 0.24,-0.78 0.16,-0.22 0.44,-0.43 0.87,-0.57 0.41,-0.16 0.96,-0.28 1.64,-0.37 0.69,-0.09 1.57,-0.13 2.62,-0.13 1.06,0 1.94,0.04 2.63,0.13 0.67,0.09 1.23,0.2 1.63,0.37 0.4,0.15 0.69,0.35 0.85,0.57 0.18,0.23 0.26,0.48 0.26,0.78l0 56.33zm-10.73 -25.61c-1.54,-1.95 -3.03,-3.43 -4.44,-4.47 -1.42,-1.03 -2.9,-1.54 -4.46,-1.54 -1.39,0 -2.61,0.35 -3.62,1.06 -1.03,0.7 -1.83,1.63 -2.45,2.8 -0.62,1.19 -1.09,2.49 -1.38,3.93 -0.31,1.45 -0.46,2.93 -0.46,4.44 0,1.61 0.13,3.17 0.38,4.68 0.26,1.52 0.69,2.87 1.28,4.06 0.59,1.19 1.36,2.14 2.35,2.86 0.97,0.72 2.2,1.07 3.69,1.07 0.73,0 1.46,-0.1 2.17,-0.32 0.7,-0.22 1.41,-0.56 2.14,-1.06 0.73,-0.48 1.48,-1.11 2.26,-1.91 0.78,-0.79 1.63,-1.74 2.54,-2.89l0 -12.71zm91.6 -1.38c0,4.61 -0.57,8.72 -1.71,12.36 -1.15,3.64 -2.85,6.73 -5.12,9.25 -2.26,2.54 -5.06,4.47 -8.39,5.8 -3.34,1.33 -7.2,2 -11.58,2 -4.33,0 -8.09,-0.57 -11.3,-1.7 -3.22,-1.13 -5.91,-2.85 -8.06,-5.18 -2.14,-2.31 -3.75,-5.26 -4.82,-8.84 -1.07,-3.57 -1.61,-7.81 -1.61,-12.71 0,-4.49 0.57,-8.53 1.72,-12.12 1.14,-3.59 2.84,-6.64 5.11,-9.17 2.26,-2.52 5.06,-4.46 8.39,-5.79 3.34,-1.35 7.21,-2.02 11.63,-2.02 4.21,0 7.92,0.56 11.14,1.67 3.21,1.11 5.91,2.83 8.06,5.16 2.17,2.31 3.8,5.23 4.89,8.77 1.1,3.55 1.66,7.71 1.66,12.52zm-11.87 0.57c0,-2.92 -0.23,-5.57 -0.69,-7.96 -0.45,-2.39 -1.23,-4.44 -2.33,-6.14 -1.1,-1.7 -2.56,-3.02 -4.4,-3.96 -1.83,-0.92 -4.12,-1.39 -6.86,-1.39 -2.77,0 -5.09,0.53 -6.93,1.57 -1.86,1.04 -3.37,2.45 -4.52,4.19 -1.14,1.74 -1.95,3.78 -2.42,6.11 -0.47,2.34 -0.7,4.81 -0.7,7.42 0,3.03 0.24,5.76 0.69,8.18 0.46,2.42 1.23,4.49 2.32,6.22 1.08,1.72 2.54,3.02 4.37,3.93 1.83,0.89 4.13,1.35 6.91,1.35 2.77,0 5.09,-0.52 6.93,-1.56 1.86,-1.03 3.37,-2.43 4.52,-4.21 1.15,-1.77 1.95,-3.84 2.42,-6.2 0.47,-2.36 0.7,-4.88 0.7,-7.55z"/>
   <path class="fil0" d="M2564.66 2825.56c0,1.06 -0.09,1.95 -0.28,2.68 -0.19,0.73 -0.52,1.32 -1,1.76 -0.47,0.46 -1.1,0.76 -1.89,0.95 -0.79,0.19 -1.79,0.28 -2.99,0.28 -1.17,0 -2.15,-0.09 -2.94,-0.28 -0.79,-0.19 -1.42,-0.5 -1.89,-0.95 -0.48,-0.44 -0.82,-1.03 -1.01,-1.76 -0.2,-0.73 -0.31,-1.63 -0.31,-2.68 0,-1.03 0.1,-1.91 0.31,-2.63 0.19,-0.72 0.53,-1.3 1.01,-1.76 0.47,-0.46 1.1,-0.79 1.89,-0.98 0.79,-0.2 1.78,-0.31 2.94,-0.31 1.2,0 2.2,0.1 2.99,0.31 0.79,0.19 1.42,0.53 1.89,0.98 0.48,0.45 0.81,1.04 1,1.76 0.19,0.72 0.28,1.6 0.28,2.63zm-0.88 51.19c0,0.28 -0.09,0.53 -0.26,0.75 -0.16,0.22 -0.45,0.4 -0.88,0.54 -0.41,0.13 -0.97,0.25 -1.65,0.32 -0.69,0.07 -1.57,0.1 -2.62,0.1 -1.06,0 -1.94,-0.03 -2.63,-0.1 -0.67,-0.07 -1.23,-0.19 -1.64,-0.32 -0.43,-0.15 -0.72,-0.32 -0.88,-0.54 -0.18,-0.22 -0.26,-0.47 -0.26,-0.75l0 -31 -14.25 0 0 31c0,0.28 -0.09,0.53 -0.26,0.75 -0.16,0.22 -0.46,0.4 -0.85,0.54 -0.41,0.13 -0.97,0.25 -1.67,0.32 -0.7,0.07 -1.57,0.1 -2.59,0.1 -1.07,0 -1.95,-0.03 -2.65,-0.1 -0.7,-0.07 -1.26,-0.19 -1.67,-0.32 -0.4,-0.15 -0.69,-0.32 -0.85,-0.54 -0.18,-0.22 -0.26,-0.47 -0.26,-0.75l0 -31 -14.16 0 0 31c0,0.28 -0.09,0.53 -0.26,0.75 -0.16,0.22 -0.46,0.4 -0.85,0.54 -0.41,0.13 -0.97,0.25 -1.69,0.32 -0.72,0.07 -1.6,0.1 -2.63,0.1 -1.04,0 -1.91,-0.03 -2.61,-0.1 -0.7,-0.07 -1.27,-0.19 -1.69,-0.32 -0.41,-0.15 -0.7,-0.32 -0.86,-0.54 -0.16,-0.22 -0.24,-0.47 -0.24,-0.75l0 -31 -4.8 0c-0.54,0 -0.95,-0.33 -1.22,-1.01 -0.28,-0.67 -0.41,-1.8 -0.41,-3.39 0,-0.83 0.03,-1.54 0.1,-2.11 0.07,-0.57 0.18,-1.03 0.31,-1.36 0.13,-0.32 0.3,-0.56 0.52,-0.7 0.2,-0.15 0.45,-0.22 0.75,-0.22l4.75 0 0 -2.83c0,-2.56 0.26,-4.82 0.79,-6.77 0.53,-1.93 1.35,-3.56 2.45,-4.87 1.11,-1.29 2.51,-2.27 4.18,-2.93 1.67,-0.66 3.67,-0.98 5.95,-0.98 1.26,0 2.39,0.1 3.37,0.31 1,0.19 1.76,0.4 2.3,0.6 0.54,0.19 0.92,0.39 1.11,0.57 0.2,0.19 0.37,0.47 0.5,0.82 0.13,0.37 0.22,0.82 0.28,1.38 0.06,0.57 0.09,1.26 0.09,2.1 0,1.41 -0.09,2.41 -0.28,2.98 -0.19,0.57 -0.5,0.85 -0.93,0.85 -0.2,0 -0.43,-0.03 -0.69,-0.12 -0.25,-0.09 -0.56,-0.19 -0.92,-0.31 -0.35,-0.12 -0.76,-0.22 -1.23,-0.32 -0.47,-0.1 -1,-0.15 -1.57,-0.15 -1.63,0 -2.8,0.51 -3.52,1.55 -0.72,1.04 -1.07,2.74 -1.07,5.1l0 3.02 14.16 0 0 -3.4c0,-2.61 0.28,-4.88 0.82,-6.83 0.54,-1.95 1.37,-3.57 2.46,-4.88 1.08,-1.3 2.46,-2.27 4.13,-2.92 1.67,-0.65 3.63,-0.97 5.91,-0.97 0.6,0 1.25,0.03 1.92,0.09 0.68,0.06 1.29,0.15 1.86,0.25 0.56,0.12 1.06,0.25 1.48,0.4 0.44,0.15 0.73,0.29 0.89,0.45 0.15,0.16 0.28,0.34 0.38,0.54 0.1,0.19 0.19,0.45 0.26,0.78 0.07,0.31 0.12,0.72 0.15,1.22 0.03,0.52 0.05,1.13 0.05,1.88 0,1.38 -0.07,2.35 -0.24,2.92 -0.16,0.56 -0.47,0.83 -0.93,0.83 -0.17,0 -0.38,-0.03 -0.58,-0.09 -0.22,-0.06 -0.48,-0.13 -0.78,-0.22 -0.31,-0.07 -0.66,-0.16 -1.08,-0.24 -0.41,-0.07 -0.91,-0.1 -1.5,-0.1 -1.56,0 -2.67,0.51 -3.36,1.54 -0.69,1.03 -1.04,2.73 -1.04,5.1l0 3.65 21.77 0c1.09,0 1.91,0.24 2.46,0.7 0.56,0.48 0.83,1.23 0.83,2.26l0 36.84zm39.36 -6.11c0,0.75 -0.01,1.36 -0.06,1.87 -0.04,0.5 -0.1,0.93 -0.17,1.28 -0.07,0.34 -0.16,0.62 -0.26,0.83 -0.1,0.22 -0.32,0.48 -0.66,0.82 -0.35,0.32 -0.94,0.73 -1.76,1.2 -0.83,0.47 -1.77,0.89 -2.84,1.28 -1.06,0.37 -2.2,0.68 -3.44,0.89 -1.25,0.24 -2.54,0.35 -3.85,0.35 -2.95,0 -5.56,-0.46 -7.83,-1.38 -2.29,-0.91 -4.19,-2.27 -5.74,-4.06 -1.54,-1.79 -2.71,-3.98 -3.49,-6.57 -0.8,-2.58 -1.19,-5.53 -1.19,-8.85 0,-3.84 0.48,-7.17 1.44,-9.95 0.97,-2.8 2.3,-5.12 4.02,-6.95 1.72,-1.83 3.75,-3.2 6.1,-4.09 2.35,-0.89 4.93,-1.33 7.74,-1.33 1.14,0 2.26,0.1 3.37,0.31 1.1,0.19 2.13,0.47 3.09,0.8 0.95,0.35 1.82,0.73 2.57,1.16 0.76,0.44 1.3,0.81 1.61,1.13 0.32,0.31 0.54,0.57 0.68,0.79 0.11,0.22 0.22,0.5 0.29,0.83 0.07,0.35 0.13,0.78 0.18,1.28 0.04,0.52 0.06,1.11 0.06,1.83 0,1.67 -0.13,2.84 -0.43,3.52 -0.3,0.67 -0.66,1.01 -1.11,1.01 -0.48,0 -1.01,-0.2 -1.56,-0.6 -0.54,-0.4 -1.19,-0.85 -1.94,-1.33 -0.73,-0.48 -1.63,-0.94 -2.65,-1.33 -1.03,-0.39 -2.26,-0.6 -3.7,-0.6 -2.81,0 -4.95,1.09 -6.45,3.24 -1.48,2.17 -2.23,5.34 -2.23,9.52 0,2.05 0.19,3.87 0.56,5.45 0.38,1.57 0.93,2.89 1.66,3.94 0.73,1.06 1.64,1.86 2.74,2.39 1.11,0.53 2.39,0.79 3.86,0.79 1.48,0 2.77,-0.22 3.84,-0.68 1.07,-0.44 2.01,-0.94 2.81,-1.48 0.79,-0.54 1.47,-1.04 2.02,-1.48 0.54,-0.45 1,-0.67 1.36,-0.67 0.26,0 0.47,0.07 0.65,0.22 0.18,0.15 0.31,0.41 0.41,0.79 0.1,0.39 0.18,0.89 0.24,1.5 0.06,0.6 0.09,1.38 0.09,2.33zm42.77 -14.16c0,1.32 -0.29,2.29 -0.88,2.92 -0.59,0.63 -1.39,0.95 -2.43,0.95l-23.34 0c0,1.63 0.19,3.09 0.59,4.43 0.38,1.32 1,2.45 1.83,3.37 0.85,0.92 1.94,1.63 3.27,2.11 1.33,0.48 2.92,0.73 4.78,0.73 1.89,0 3.55,-0.13 4.98,-0.41 1.43,-0.28 2.67,-0.57 3.71,-0.91 1.04,-0.34 1.91,-0.63 2.59,-0.91 0.69,-0.28 1.24,-0.41 1.67,-0.41 0.26,0 0.48,0.04 0.65,0.15 0.18,0.1 0.32,0.28 0.44,0.54 0.1,0.25 0.19,0.61 0.23,1.08 0.04,0.47 0.06,1.07 0.06,1.78 0,0.63 -0.02,1.17 -0.04,1.61 -0.03,0.44 -0.07,0.82 -0.13,1.13 -0.06,0.32 -0.13,0.59 -0.25,0.79 -0.12,0.22 -0.26,0.43 -0.45,0.63 -0.19,0.19 -0.69,0.47 -1.53,0.82 -0.83,0.35 -1.89,0.69 -3.18,1.03 -1.29,0.33 -2.76,0.63 -4.41,0.88 -1.66,0.25 -3.43,0.38 -5.32,0.38 -3.42,0 -6.39,-0.43 -8.96,-1.29 -2.55,-0.85 -4.69,-2.15 -6.42,-3.9 -1.72,-1.74 -2.99,-3.96 -3.84,-6.61 -0.83,-2.67 -1.26,-5.79 -1.26,-9.37 0,-3.4 0.44,-6.46 1.33,-9.2 0.88,-2.73 2.17,-5.04 3.87,-6.95 1.69,-1.91 3.74,-3.36 6.16,-4.35 2.43,-1.01 5.16,-1.51 8.19,-1.51 3.21,0 5.95,0.47 8.22,1.42 2.29,0.94 4.15,2.26 5.61,3.93 1.45,1.67 2.54,3.67 3.23,5.95 0.69,2.29 1.02,4.78 1.02,7.48l0 1.72zm-10.46 -3.08c0.09,-3.04 -0.53,-5.43 -1.83,-7.15 -1.3,-1.74 -3.31,-2.61 -6.04,-2.61 -1.38,0 -2.58,0.26 -3.59,0.78 -1.03,0.52 -1.88,1.2 -2.55,2.08 -0.67,0.88 -1.19,1.91 -1.54,3.09 -0.37,1.2 -0.57,2.46 -0.63,3.81l16.19 0zm45.93 12.5c0,2.17 -0.41,4.09 -1.23,5.76 -0.81,1.66 -1.96,3.04 -3.46,4.17 -1.49,1.11 -3.25,1.95 -5.29,2.51 -2.04,0.56 -4.24,0.83 -6.61,0.83 -1.44,0 -2.81,-0.1 -4.12,-0.32 -1.31,-0.22 -2.46,-0.5 -3.5,-0.83 -1.03,-0.32 -1.89,-0.66 -2.58,-1.01 -0.69,-0.35 -1.19,-0.68 -1.5,-0.98 -0.32,-0.31 -0.57,-0.78 -0.73,-1.42 -0.17,-0.63 -0.26,-1.58 -0.26,-2.84 0,-0.82 0.03,-1.48 0.09,-1.98 0.06,-0.5 0.15,-0.91 0.25,-1.2 0.12,-0.3 0.26,-0.5 0.44,-0.6 0.16,-0.1 0.38,-0.15 0.64,-0.15 0.31,0 0.78,0.17 1.39,0.54 0.62,0.37 1.38,0.76 2.3,1.19 0.91,0.44 1.98,0.85 3.2,1.22 1.22,0.38 2.61,0.57 4.15,0.57 0.97,0 1.85,-0.1 2.59,-0.31 0.76,-0.19 1.42,-0.48 1.98,-0.86 0.56,-0.37 0.98,-0.84 1.28,-1.43 0.28,-0.57 0.43,-1.23 0.43,-1.98 0,-0.87 -0.26,-1.6 -0.79,-2.22 -0.54,-0.61 -1.25,-1.16 -2.11,-1.61 -0.88,-0.46 -1.88,-0.88 -2.98,-1.29 -1.1,-0.39 -2.24,-0.83 -3.4,-1.33 -1.16,-0.48 -2.3,-1.04 -3.4,-1.67 -1.1,-0.63 -2.09,-1.39 -2.98,-2.31 -0.86,-0.91 -1.57,-2.02 -2.11,-3.3 -0.53,-1.29 -0.79,-2.85 -0.79,-4.65 0,-1.83 0.37,-3.5 1.08,-5.04 0.72,-1.53 1.75,-2.85 3.09,-3.93 1.36,-1.09 3,-1.94 4.94,-2.54 1.95,-0.6 4.12,-0.89 6.54,-0.89 1.22,0 2.37,0.09 3.52,0.25 1.13,0.17 2.17,0.39 3.08,0.64 0.93,0.26 1.7,0.53 2.33,0.84 0.63,0.29 1.09,0.56 1.37,0.76 0.28,0.22 0.47,0.43 0.58,0.65 0.11,0.22 0.19,0.47 0.25,0.78 0.06,0.3 0.12,0.68 0.16,1.11 0.04,0.44 0.06,1 0.06,1.66 0,0.78 -0.02,1.41 -0.06,1.89 -0.04,0.48 -0.12,0.88 -0.22,1.16 -0.1,0.29 -0.24,0.48 -0.41,0.59 -0.18,0.1 -0.38,0.15 -0.6,0.15 -0.26,0 -0.67,-0.15 -1.22,-0.46 -0.54,-0.29 -1.23,-0.61 -2.05,-0.95 -0.82,-0.33 -1.78,-0.66 -2.85,-0.95 -1.08,-0.31 -2.31,-0.45 -3.69,-0.45 -0.98,0 -1.83,0.1 -2.55,0.29 -0.72,0.21 -1.3,0.5 -1.77,0.87 -0.46,0.37 -0.81,0.81 -1.03,1.31 -0.24,0.5 -0.35,1.04 -0.35,1.59 0,0.9 0.28,1.64 0.82,2.24 0.54,0.6 1.26,1.13 2.15,1.58 0.88,0.46 1.91,0.89 3.04,1.29 1.13,0.39 2.29,0.83 3.44,1.3 1.16,0.47 2.31,1.03 3.44,1.66 1.13,0.63 2.16,1.41 3.04,2.31 0.89,0.93 1.61,2.01 2.15,3.28 0.54,1.28 0.82,2.79 0.82,4.53z"/>
  </g>
 </g>
</svg>
