<?xml version="1.0" standalone="no"?><svg xmlns="http://www.w3.org/2000/svg" viewBox="0 0 1440 320">
<linearGradient id="Gradient2" x1="0" x2="0" y1="0" y2="1">
    <stop offset="0%" stop-color="#669933"/>
    <stop offset="100%" stop-color="#99ff00"/>
</linearGradient>
<path fill="url(#Gradient2)" fill-opacity="1" d="M0,288L48,272C96,256,192,224,288,229.3C384,235,480,277,576,245.3C672,213,768,107,864,58.7C960,11,1056,21,1152,37.3C1248,53,1344,75,1392,85.3L1440,96L1440,0L1392,0C1344,0,1248,0,1152,0C1056,0,960,0,864,0C768,0,672,0,576,0C480,0,384,0,288,0C192,0,96,0,48,0L0,0Z"></path></svg>