<?xml version="1.0" standalone="no"?><svg xmlns="http://www.w3.org/2000/svg" viewBox="0 0 1440 320">
<linearGradient id="Gradient2" x1="0" x2="0" y1="0" y2="1">
    <stop offset="0%" stop-color="#00ffff"/>
    <stop offset="100%" stop-color="#0078ba"/>
</linearGradient>
<path fill="url(#Gradient2)" fill-opacity="1" d="M0,288L48,256C96,224,192,160,288,128C384,96,480,96,576,117.3C672,139,768,181,864,170.7C960,160,1056,96,1152,90.7C1248,85,1344,139,1392,165.3L1440,192L1440,0L1392,0C1344,0,1248,0,1152,0C1056,0,960,0,864,0C768,0,672,0,576,0C480,0,384,0,288,0C192,0,96,0,48,0L0,0Z"></path></svg>